<svg width="157" height="24" viewBox="0 0 157 24" fill="none" xmlns="http://www.w3.org/2000/svg">
<rect x="4" y="7.03125" width="3" height="15" rx="1.5" fill="url(#paint0_linear_16_489)"/>
<rect x="7" y="15.375" width="3" height="14" rx="1.5" transform="rotate(180 7 15.375)" fill="url(#paint1_linear_16_489)"/>
<rect x="16" y="12.7031" width="3" height="6" rx="1.5" fill="url(#paint2_linear_16_489)"/>
<rect x="19" y="15.375" width="3" height="14" rx="1.5" transform="rotate(180 19 15.375)" fill="url(#paint3_linear_16_489)"/>
<rect x="12" y="12.375" width="3" height="9" rx="1.5" fill="url(#paint4_linear_16_489)"/>
<rect x="15" y="15.375" width="3" height="9" rx="1.5" transform="rotate(180 15 15.375)" fill="url(#paint5_linear_16_489)"/>
<rect x="8" y="12.7031" width="3" height="5" rx="1.5" fill="url(#paint6_linear_16_489)"/>
<rect x="11" y="15.375" width="3" height="12" rx="1.5" transform="rotate(180 11 15.375)" fill="url(#paint7_linear_16_489)"/>
<rect y="12.375" width="3" height="8" rx="1.5" fill="url(#paint8_linear_16_489)"/>
<rect x="3" y="15.7031" width="3" height="11" rx="1.5" transform="rotate(180 3 15.7031)" fill="url(#paint9_linear_16_489)"/>
<path d="M155.627 13.0938H147.987V19.5312H156.971V23.0781H143.534V0.328125H156.94V3.89062H147.987V9.54688H155.627V13.0938Z" fill="#0B23F4"/>
<path d="M139.877 13.0938H132.237V19.5312H141.221V23.0781H127.784V0.328125H141.19V3.89062H132.237V9.54688H139.877V13.0938Z" fill="#0B23F4"/>
<path d="M120.549 17.1406C120.549 16.2552 120.32 15.5573 119.862 15.0469C119.404 14.526 118.596 14.0156 117.44 13.5156C115.075 12.6927 113.299 11.7604 112.112 10.7188C110.935 9.66667 110.346 8.19792 110.346 6.3125C110.346 4.44792 111.034 2.93229 112.409 1.76562C113.784 0.588542 115.539 0 117.674 0C119.841 0 121.601 0.65625 122.956 1.96875C124.31 3.27083 124.966 4.91667 124.924 6.90625L124.893 7H120.581C120.581 5.95833 120.32 5.11458 119.799 4.46875C119.279 3.82292 118.544 3.5 117.596 3.5C116.711 3.5 116.018 3.77083 115.518 4.3125C115.029 4.84375 114.784 5.51562 114.784 6.32812C114.784 7.07812 115.06 7.69792 115.612 8.1875C116.164 8.66667 117.122 9.20312 118.487 9.79688C120.643 10.526 122.263 11.4531 123.346 12.5781C124.44 13.6927 124.987 15.2031 124.987 17.1094C124.987 19.0781 124.331 20.6198 123.018 21.7344C121.706 22.849 119.961 23.4062 117.784 23.4062C115.617 23.4062 113.737 22.776 112.143 21.5156C110.56 20.2448 109.794 18.4271 109.846 16.0625L109.877 15.9688H114.206C114.206 17.375 114.502 18.3854 115.096 19C115.69 19.6146 116.586 19.9219 117.784 19.9219C118.721 19.9219 119.414 19.6719 119.862 19.1719C120.32 18.6719 120.549 17.9948 120.549 17.1406Z" fill="#0B23F4"/>
<path d="M108.549 3.89062H103.424V23.0781H98.9868V3.89062H93.8931V0.328125H108.549V3.89062Z" fill="#0B23F4"/>
<path d="M82.7056 14.0312V23.0781H78.2681V0.34375H85.6899C87.9295 0.34375 89.6847 0.9375 90.9556 2.125C92.2368 3.30208 92.8774 4.94271 92.8774 7.04688C92.8774 8.23438 92.6118 9.26042 92.0806 10.125C91.5493 10.9792 90.7733 11.6615 89.7524 12.1719C90.9191 12.5677 91.7576 13.224 92.2681 14.1406C92.7889 15.0573 93.0493 16.2031 93.0493 17.5781V19.1875C93.0493 19.8125 93.1222 20.4844 93.2681 21.2031C93.4139 21.9115 93.6691 22.4271 94.0337 22.75V23.0781H89.4399C89.0754 22.7448 88.8462 22.2031 88.7524 21.4531C88.6587 20.7031 88.6118 19.9375 88.6118 19.1562V17.6094C88.6118 16.474 88.3774 15.5938 87.9087 14.9688C87.4504 14.3438 86.7889 14.0312 85.9243 14.0312H82.7056ZM82.7056 10.4844H85.6743C86.5806 10.4844 87.2681 10.2083 87.7368 9.65625C88.2056 9.10417 88.4399 8.31771 88.4399 7.29688C88.4399 6.25521 88.2056 5.42708 87.7368 4.8125C87.2681 4.19792 86.5858 3.89062 85.6899 3.89062H82.7056V10.4844Z" fill="#0B23F4"/>
<path d="M75.3618 14.9062C75.3618 17.5729 74.6379 19.6562 73.1899 21.1562C71.742 22.6562 69.8149 23.4062 67.4087 23.4062C65.0024 23.4062 63.0806 22.6562 61.6431 21.1562C60.2056 19.6562 59.4868 17.5729 59.4868 14.9062V8.53125C59.4868 5.875 60.2056 3.79167 61.6431 2.28125C63.0806 0.760417 64.9972 0 67.3931 0C69.7889 0 71.716 0.760417 73.1743 2.28125C74.6326 3.79167 75.3618 5.875 75.3618 8.53125V14.9062ZM70.9399 8.5C70.9399 6.875 70.6379 5.65104 70.0337 4.82812C69.4295 3.99479 68.5493 3.57812 67.3931 3.57812C66.2264 3.57812 65.3514 3.98958 64.7681 4.8125C64.1847 5.63542 63.8931 6.86458 63.8931 8.5V14.9062C63.8931 16.5521 64.1899 17.7865 64.7837 18.6094C65.3774 19.4323 66.2524 19.8438 67.4087 19.8438C68.5545 19.8438 69.4295 19.4323 70.0337 18.6094C70.6379 17.7865 70.9399 16.5521 70.9399 14.9062V8.5Z" fill="#0B23F4"/>
<path d="M46.3931 14.9219V23.0781H41.9399V0.328125H49.8462C52.117 0.328125 53.9087 1 55.2212 2.34375C56.5337 3.6875 57.1899 5.44792 57.1899 7.625C57.1899 9.8125 56.5285 11.5781 55.2056 12.9219C53.8931 14.2552 52.1066 14.9219 49.8462 14.9219H46.3931ZM46.3931 11.3594H49.8462C50.7941 11.3594 51.5181 11.0104 52.0181 10.3125C52.5181 9.61458 52.7681 8.72917 52.7681 7.65625C52.7681 6.57292 52.5181 5.67708 52.0181 4.96875C51.5285 4.25 50.8045 3.89062 49.8462 3.89062H46.3931V11.3594Z" fill="#0B23F4"/>
<path d="M34.7056 17.1406C34.7056 16.2552 34.4764 15.5573 34.0181 15.0469C33.5598 14.526 32.7525 14.0156 31.5962 13.5156C29.2317 12.6927 27.4556 11.7604 26.2681 10.7188C25.091 9.66667 24.5025 8.19792 24.5025 6.3125C24.5025 4.44792 25.19 2.93229 26.565 1.76562C27.94 0.588542 29.6952 0 31.8306 0C33.9973 0 35.7577 0.65625 37.1119 1.96875C38.466 3.27083 39.1223 4.91667 39.0806 6.90625L39.0494 7H34.7369C34.7369 5.95833 34.4764 5.11458 33.9556 4.46875C33.4348 3.82292 32.7004 3.5 31.7525 3.5C30.8671 3.5 30.1744 3.77083 29.6744 4.3125C29.1848 4.84375 28.94 5.51562 28.94 6.32812C28.94 7.07812 29.216 7.69792 29.7681 8.1875C30.3202 8.66667 31.2785 9.20312 32.6431 9.79688C34.7994 10.526 36.4192 11.4531 37.5025 12.5781C38.5962 13.6927 39.1431 15.2031 39.1431 17.1094C39.1431 19.0781 38.4869 20.6198 37.1744 21.7344C35.8619 22.849 34.1171 23.4062 31.94 23.4062C29.7733 23.4062 27.8931 22.776 26.2994 21.5156C24.716 20.2448 23.9504 18.4271 24.0025 16.0625L24.0337 15.9688H28.3619C28.3619 17.375 28.6587 18.3854 29.2525 19C29.8462 19.6146 30.7421 19.9219 31.94 19.9219C32.8775 19.9219 33.5702 19.6719 34.0181 19.1719C34.4764 18.6719 34.7056 17.9948 34.7056 17.1406Z" fill="#0B23F4"/>
<defs>
<linearGradient id="paint0_linear_16_489" x1="5.5" y1="7.03125" x2="5.5" y2="22.0312" gradientUnits="userSpaceOnUse">
<stop stop-color="#F4320B"/>
<stop offset="1" stop-color="#5465F7"/>
</linearGradient>
<linearGradient id="paint1_linear_16_489" x1="8.5" y1="29.375" x2="8.5" y2="15.375" gradientUnits="userSpaceOnUse">
<stop stop-color="#F99885"/>
<stop offset="1" stop-color="#DF392B"/>
</linearGradient>
<linearGradient id="paint2_linear_16_489" x1="17.5" y1="12.7031" x2="17.5" y2="18.7031" gradientUnits="userSpaceOnUse">
<stop stop-color="#F4320B"/>
<stop offset="1" stop-color="#5465F7"/>
</linearGradient>
<linearGradient id="paint3_linear_16_489" x1="20.5" y1="29.375" x2="20.5" y2="15.375" gradientUnits="userSpaceOnUse">
<stop stop-color="#F99885"/>
<stop offset="1" stop-color="#DF392B"/>
</linearGradient>
<linearGradient id="paint4_linear_16_489" x1="13.5" y1="12.375" x2="13.5" y2="21.375" gradientUnits="userSpaceOnUse">
<stop stop-color="#F4320B"/>
<stop offset="1" stop-color="#5465F7"/>
</linearGradient>
<linearGradient id="paint5_linear_16_489" x1="16.5" y1="24.375" x2="16.5" y2="15.375" gradientUnits="userSpaceOnUse">
<stop stop-color="#F99885"/>
<stop offset="1" stop-color="#DF392B"/>
</linearGradient>
<linearGradient id="paint6_linear_16_489" x1="9.5" y1="12.7031" x2="9.5" y2="17.7031" gradientUnits="userSpaceOnUse">
<stop stop-color="#F4320B"/>
<stop offset="1" stop-color="#5465F7"/>
</linearGradient>
<linearGradient id="paint7_linear_16_489" x1="12.5" y1="27.375" x2="12.5" y2="15.375" gradientUnits="userSpaceOnUse">
<stop stop-color="#F99885"/>
<stop offset="1" stop-color="#DF392B"/>
</linearGradient>
<linearGradient id="paint8_linear_16_489" x1="1.5" y1="12.375" x2="1.5" y2="20.375" gradientUnits="userSpaceOnUse">
<stop stop-color="#F4320B"/>
<stop offset="1" stop-color="#5465F7"/>
</linearGradient>
<linearGradient id="paint9_linear_16_489" x1="4.5" y1="26.7031" x2="4.5" y2="15.7031" gradientUnits="userSpaceOnUse">
<stop stop-color="#F99885"/>
<stop offset="1" stop-color="#DF392B"/>
</linearGradient>
</defs>
</svg>
