<svg width="19" height="21" viewBox="0 0 19 21" fill="none" xmlns="http://www.w3.org/2000/svg">
<rect x="4" y="5.65625" width="3" height="15" rx="1.5" fill="url(#paint0_linear_12011_198)"/>
<rect x="7" y="14" width="3" height="14" rx="1.5" transform="rotate(180 7 14)" fill="url(#paint1_linear_12011_198)"/>
<rect x="16" y="11.3281" width="3" height="6" rx="1.5" fill="url(#paint2_linear_12011_198)"/>
<rect x="19" y="14" width="3" height="14" rx="1.5" transform="rotate(180 19 14)" fill="url(#paint3_linear_12011_198)"/>
<rect x="12" y="11" width="3" height="9" rx="1.5" fill="url(#paint4_linear_12011_198)"/>
<rect x="15" y="14" width="3" height="9" rx="1.5" transform="rotate(180 15 14)" fill="url(#paint5_linear_12011_198)"/>
<rect x="8" y="11.3281" width="3" height="5" rx="1.5" fill="url(#paint6_linear_12011_198)"/>
<rect x="11" y="14" width="3" height="12" rx="1.5" transform="rotate(180 11 14)" fill="url(#paint7_linear_12011_198)"/>
<rect y="11" width="3" height="8" rx="1.5" fill="url(#paint8_linear_12011_198)"/>
<rect x="3" y="14.3281" width="3" height="11" rx="1.5" transform="rotate(180 3 14.3281)" fill="url(#paint9_linear_12011_198)"/>
<defs>
<linearGradient id="paint0_linear_12011_198" x1="5.5" y1="5.65625" x2="5.5" y2="20.6562" gradientUnits="userSpaceOnUse">
<stop stop-color="#F4320B"/>
<stop offset="1" stop-color="#5465F7"/>
</linearGradient>
<linearGradient id="paint1_linear_12011_198" x1="8.5" y1="28" x2="8.5" y2="14" gradientUnits="userSpaceOnUse">
<stop stop-color="#F99885"/>
<stop offset="1" stop-color="#DF392B"/>
</linearGradient>
<linearGradient id="paint2_linear_12011_198" x1="17.5" y1="11.3281" x2="17.5" y2="17.3281" gradientUnits="userSpaceOnUse">
<stop stop-color="#F4320B"/>
<stop offset="1" stop-color="#5465F7"/>
</linearGradient>
<linearGradient id="paint3_linear_12011_198" x1="20.5" y1="28" x2="20.5" y2="14" gradientUnits="userSpaceOnUse">
<stop stop-color="#F99885"/>
<stop offset="1" stop-color="#DF392B"/>
</linearGradient>
<linearGradient id="paint4_linear_12011_198" x1="13.5" y1="11" x2="13.5" y2="20" gradientUnits="userSpaceOnUse">
<stop stop-color="#F4320B"/>
<stop offset="1" stop-color="#5465F7"/>
</linearGradient>
<linearGradient id="paint5_linear_12011_198" x1="16.5" y1="23" x2="16.5" y2="14" gradientUnits="userSpaceOnUse">
<stop stop-color="#F99885"/>
<stop offset="1" stop-color="#DF392B"/>
</linearGradient>
<linearGradient id="paint6_linear_12011_198" x1="9.5" y1="11.3281" x2="9.5" y2="16.3281" gradientUnits="userSpaceOnUse">
<stop stop-color="#F4320B"/>
<stop offset="1" stop-color="#5465F7"/>
</linearGradient>
<linearGradient id="paint7_linear_12011_198" x1="12.5" y1="26" x2="12.5" y2="14" gradientUnits="userSpaceOnUse">
<stop stop-color="#F99885"/>
<stop offset="1" stop-color="#DF392B"/>
</linearGradient>
<linearGradient id="paint8_linear_12011_198" x1="1.5" y1="11" x2="1.5" y2="19" gradientUnits="userSpaceOnUse">
<stop stop-color="#F4320B"/>
<stop offset="1" stop-color="#5465F7"/>
</linearGradient>
<linearGradient id="paint9_linear_12011_198" x1="4.5" y1="25.3281" x2="4.5" y2="14.3281" gradientUnits="userSpaceOnUse">
<stop stop-color="#F99885"/>
<stop offset="1" stop-color="#DF392B"/>
</linearGradient>
</defs>
</svg>
